<svg xmlns="http://www.w3.org/2000/svg" width="128" height="128" viewBox="0 0 128 128" role="img" aria-labelledby="title desc">
  <title id="title">Tab Harbor icon</title>
  <desc id="desc">A Google-inspired four-color roundel with stacked tabs at the center.</desc>

  <defs>
    <clipPath id="icon-clip">
      <circle cx="64" cy="64" r="56"/>
    </clipPath>
    <filter id="center-shadow" x="-20%" y="-20%" width="140%" height="140%">
      <feDropShadow dx="0" dy="4" stdDeviation="4" flood-color="#1f2a3a" flood-opacity="0.16"/>
    </filter>
  </defs>

  <circle cx="64" cy="64" r="58" fill="#ffffff"/>
  <circle cx="64" cy="64" r="56" fill="#f6f8fc" stroke="#dbe3ee" stroke-width="2"/>

  <g clip-path="url(#icon-clip)">
    <circle cx="38" cy="38" r="40" fill="#ea4335"/>
    <circle cx="92" cy="38" r="40" fill="#fbbc04"/>
    <circle cx="92" cy="90" r="40" fill="#34a853"/>
    <circle cx="36" cy="92" r="40" fill="#4285f4"/>
  </g>

  <circle cx="64" cy="64" r="27" fill="#ffffff" filter="url(#center-shadow)"/>
  <circle cx="64" cy="64" r="26" fill="#ffffff" stroke="#d8e0ee" stroke-width="1.5"/>

  <g transform="translate(64 64)">
    <rect x="-18" y="-11" width="22" height="16" rx="4" fill="#cfdcf3" stroke="#3a4a62" stroke-width="2.2"/>
    <path d="M-14 -11h8l3 4h-11a3 3 0 0 0-3 3v-3a4 4 0 0 1 4-4Z" fill="#e8effb"/>
    <rect x="-4" y="-3" width="22" height="16" rx="4" fill="#3a4a62"/>
    <path d="M0 -3h8l3 4H0a4 4 0 0 0-4 4V1a4 4 0 0 1 4-4Z" fill="#55657d"/>
    <rect x="2" y="1" width="10" height="2.5" rx="1.25" fill="#ffffff" opacity="0.96"/>
    <rect x="2" y="6" width="14" height="2.5" rx="1.25" fill="#dce7f8" opacity="0.92"/>
  </g>
</svg>
